# xmcd
#
# Track frame offsets: 
#        150
#        18517
#        38810
#        63258
#        84744
#        108518
#        132461
#        153178
#        175192
#        191914
#        216042
#        233055
#        250213
#        266309
#        284148
#        305313
#        330957
#
# Disc length: 4624 seconds
#
# Revision: 0
# Processed by: cddbd v1.5.2PL0 Copyright (c) Steve Scherf et al.
# Submitted via: ExactAudioCopy v1.0b6
#
DISCID=ec120e11
DTITLE=Kingsway - Worship Collection (2012)
DYEAR=2012
DGENRE=Praise and Worship
TTITLE0=Love So Amazing
TTITLE1=Unchanging • Raise Up Holy Hands
TTITLE2=On The Edge
TTITLE3=Who Is Like You
TTITLE4=In Majesty He Rides
TTITLE5=You Have Been Lifted
TTITLE6=What I Believe
TTITLE7=Beautiful Saviour
TTITLE8=Holy
TTITLE9=Blessed Assurance
TTITLE10=Holy Spirit How I Love You
TTITLE11=Hope Of The Nations
TTITLE12=You Pour Out Grace
TTITLE13=There's A Time
TTITLE14=How Good It Is
TTITLE15=Father Your Love
TTITLE16=What Can I Say
EXTD=
EXTT0=
EXTT1=
EXTT2=
EXTT3=
EXTT4=
EXTT5=
EXTT6=
EXTT7=
EXTT8=
EXTT9=
EXTT10=
EXTT11=
EXTT12=
EXTT13=
EXTT14=
EXTT15=
EXTT16=
PLAYORDER=
